<?xml version="1.0" encoding="UTF-8"?> <svg xmlns="http://www.w3.org/2000/svg" xmlns:xlink="http://www.w3.org/1999/xlink" id="illustration_administration" width="177.769" height="160" viewBox="0 0 177.769 160"><defs><clipPath id="clip-path"><path id="Clip_8" data-name="Clip 8" d="M0,160H177.769V0H0Z" fill="none"></path></clipPath></defs><path id="Fill_1" data-name="Fill 1" d="M31.213,8.687h-.778A8.815,8.815,0,0,0,21.535,0,8.952,8.952,0,0,0,14.82,3,6.739,6.739,0,0,0,11.9,2.344,6.6,6.6,0,0,0,5.252,8.687H4.471a4.384,4.384,0,1,0,0,8.767H31.213a4.384,4.384,0,1,0,0-8.767" transform="translate(140.773 73.47)" fill="#e0efff"></path><path id="Fill_3" data-name="Fill 3" d="M18.015,5.114h-.449A5.136,5.136,0,0,0,8.553,1.768,3.842,3.842,0,0,0,3.032,5.114H2.58a2.58,2.58,0,1,0,0,5.161H18.015a2.58,2.58,0,0,0,0-5.161" transform="translate(152.23 25.561)" fill="#e0efff"></path><path id="Fill_5" data-name="Fill 5" d="M1.621,3.212H1.9a3.225,3.225,0,0,1,5.66-2.1,2.413,2.413,0,0,1,3.468,2.1h.284a1.621,1.621,0,1,1,0,3.241H1.621a1.621,1.621,0,1,1,0-3.241" transform="translate(58.859 33.358)" fill="#e0efff"></path><path id="Clip_8-2" data-name="Clip 8" d="M0,160H177.769V0H0Z" fill="none"></path><g id="_10_Startup" data-name="10_Startup" clip-path="url(#clip-path)"><path id="Fill_7" data-name="Fill 7" d="M0,43.105H11.28V0H0Z" transform="translate(118.81 110.012)" fill="#dce2ed"></path><path id="Fill_9" data-name="Fill 9" d="M0,38.474H17.374V0H0Z" transform="translate(129.831 114.643)" fill="#dce2ed"></path><path id="Fill_10" data-name="Fill 10" d="M0,0V3.035a2.271,2.271,0,0,0,4.542,0V0Z" transform="translate(136.871 50.206)" fill="#abd4ff"></path><path id="Fill_11" data-name="Fill 11" d="M0,2.271a2.271,2.271,0,1,1,4.542,0v6.07a2.271,2.271,0,0,0,2.271,2.271H.019V8.632A2.3,2.3,0,0,1,0,8.341Z" transform="translate(132.329 44.9)" fill="#5caaff"></path><path id="Fill_12" data-name="Fill 12" d="M109.218,73H0V4.856A4.856,4.856,0,0,1,4.856,0h99.506a4.856,4.856,0,0,1,4.856,4.856Z" transform="translate(39.726 53.606)" fill="#274f7a"></path><path id="Fill_13" data-name="Fill 13" d="M0,61.093H97.308V0H0Z" transform="translate(45.681 59.56)" fill="#e0efff"></path><path id="Fill_14" data-name="Fill 14" d="M128.924,0H1.333A1.333,1.333,0,0,0,0,1.333V3.7A3.713,3.713,0,0,0,3.713,7.41h122.83A3.713,3.713,0,0,0,130.256,3.7V1.333A1.333,1.333,0,0,0,128.924,0" transform="translate(29.207 126.609)" fill="#3d7cbf"></path><path id="Fill_15" data-name="Fill 15" d="M57.6,0H0V1.848A1.857,1.857,0,0,0,1.857,3.705H55.748A1.857,1.857,0,0,0,57.6,1.848Z" transform="translate(65.533 126.609)" fill="#32679e"></path><path id="Fill_16" data-name="Fill 16" d="M97.1,0,64.419,31.018,48.054,23.932,27.534,43.313,10.65,38.426,0,48.2v12.76H97.1Z" transform="translate(45.869 59.692)" fill="#abd4ff"></path><path id="Fill_17" data-name="Fill 17" d="M14.821,16.865a2.044,2.044,0,0,1-2.044-2.044V4.087H2.044A2.044,2.044,0,0,1,2.044,0H14.821a2.044,2.044,0,0,1,2.044,2.044V14.821a2.044,2.044,0,0,1-2.044,2.044" transform="translate(146.131 40.578)" fill="#5caaff"></path><path id="Fill_18" data-name="Fill 18" d="M116.566.637a2.043,2.043,0,0,0-2.889-.075L63.991,47.72,48.866,41.172a2.043,2.043,0,0,0-2.215.39L26.98,60.14,11.218,55.578a2.043,2.043,0,0,0-1.95.457L0,64.542v5.547L11.185,59.823l15.78,4.568a2.041,2.041,0,0,0,1.971-.477L48.478,45.457l15.129,6.55a2.044,2.044,0,0,0,2.219-.393L116.49,3.525a2.043,2.043,0,0,0,.075-2.889" transform="translate(45.869 40.578)" fill="#5caaff"></path><path id="Fill_19" data-name="Fill 19" d="M8.772,0A12.265,12.265,0,0,1,9.8,3.487c0,1.2.068,1.475-1.291,2.019S0,7.886,0,7.886l4.16-4.4L5.352,1.155Z" transform="translate(112.689 138.726)" fill="#247bde"></path><path id="Fill_20" data-name="Fill 20" d="M.421,5.495S6.486,3.969,6.837,2.516A17.009,17.009,0,0,0,5.948,0L2.528,1.156,1.337,3.487,0,4.9Z" transform="translate(115.513 138.726)" fill="#ffadc8"></path><path id="Fill_21" data-name="Fill 21" d="M15.975,0S1.629.452.228,3.006,4.337,23.024,4.337,23.024a7.459,7.459,0,0,0,5.323-1.559L7.42,8.055,17.543,6.586Z" transform="translate(112.689 117.722)" fill="#2c3955"></path><path id="Fill_22" data-name="Fill 22" d="M8.526,0s.2,2.376-4.49,3.677S-.063,5.889.132,6.67s7.027.13,9.825,0,3.383-.145,3.188-1.992A31.058,31.058,0,0,1,12.755,0Z" transform="translate(104.861 142.43)" fill="#247bde"></path><path id="Fill_23" data-name="Fill 23" d="M6.483,0s.2,2.376-4.49,3.677C1.178,3.9.526,4.118,0,4.322c.407.263,1.609.791,4.547.62A21.692,21.692,0,0,0,10.975,3.59,20.721,20.721,0,0,1,10.712,0Z" transform="translate(106.904 142.43)" fill="#ffadc8"></path><path id="Fill_24" data-name="Fill 24" d="M6.584.01C2.775-.182,1.188,2.359.984,4.5S.749,8.588.177,9.4s.347,2.262,1.215,3.352S.089,16.4.627,17.522a8.288,8.288,0,0,0,2.665,2.349s12.4-1.583,12.191-3.982a7.8,7.8,0,0,0-2.553-5.667c-1.838-1.838-.3-2.706-.431-4.033s-1.662-1.48-2.173-3.216A3.833,3.833,0,0,0,6.584.01" transform="translate(128.487 87.823)" fill="#1e66b8"></path><path id="Fill_25" data-name="Fill 25" d="M27.929,3.832s-.248,6.945-6.924,6.474C16.07,9.957,7.57,10.284,7.57,10.284l-1.81,17.2S1.646,28.633,0,26.576c0,0,1.07-16.486,1.316-18.363S1.975,4.36,4.69,3.7s11.355-1.81,12.589-2.057A7.264,7.264,0,0,0,19.986,0Z" transform="translate(112.221 116.43)" fill="#37486b"></path><path id="Fill_26" data-name="Fill 26" d="M7.649.026c2.567-.288,5.915,1.847,6.665,4.213s-.923,6.291-1.789,9.581a44.45,44.45,0,0,0-1.039,7.907S3.059,23.806,0,19.188c0,0,1.731-3.867,1.385-6.522s-.924-3.983,0-5.887S3.29,1.585,4.5,1.18,7.649.026,7.649.026" transform="translate(128.664 98.533)" fill="#4491ff"></path><path id="Fill_27" data-name="Fill 27" d="M1.654.432C.063,1.175-.424,2.683.384,5.165S2.4,9.9,4.6,8.455A5.638,5.638,0,0,0,6.964,3.376C6.906,2.164,5.117-1.184,1.654.432" transform="translate(130.358 89.989)" fill="#ffadc8"></path><path id="Fill_28" data-name="Fill 28" d="M0,3.193.923,6.137s3-.249,3.059-1.683A17.659,17.659,0,0,0,2.966,0Z" transform="translate(134.321 94.443)" fill="#ffadc8"></path><path id="Fill_29" data-name="Fill 29" d="M4.79,3.458c.4,2.136,3.059,9.639,3.059,10.158,0,0-5.084,1.842-7.849,2.02v2.251a64.009,64.009,0,0,0,7.33-.519c2.886-.462,4.5-1.212,4.5-1.616A85.048,85.048,0,0,0,9.985,5.132C9,1.611,7.791-.352,5.916.052S4.79,3.458,4.79,3.458" transform="translate(135.071 100.527)" fill="#ffadc8"></path><path id="Fill_30" data-name="Fill 30" d="M7.688.542A27.387,27.387,0,0,1,3.776.08C2.9-.208.515.311.061,1.177S1.8,3.017,2.578,2.793s.777-.652,1.555-.613.817,1.887,3.556.613Z" transform="translate(127.383 115.621)" fill="#ffadc8"></path><path id="Fill_31" data-name="Fill 31" d="M0,1.433s-.153,1.123,1.43,1.736,3.012.817,3.216,2.655S5.562,7.565,6.535,8.7,9.3,10.8,9.3,9.842s-2.5-7.8-2.5-7.8S4.905-.1,3.272,0A6.894,6.894,0,0,0,0,1.433" transform="translate(130.794 89.055)" fill="#1e66b8"></path><path id="Fill_32" data-name="Fill 32" d="M12.807,1.992H1A1,1,0,1,1,1,0H12.807a1,1,0,0,1,0,1.992" transform="translate(117.1 117.866)" fill="#247bde"></path><path id="Fill_33" data-name="Fill 33" d="M8.372.447,14.2,13.8H5.627L.063,1.043A.745.745,0,0,1,.746,0H7.689a.745.745,0,0,1,.683.447" transform="translate(111.549 106.055)" fill="#247bde"></path><path id="Fill_34" data-name="Fill 34" d="M2.271,0H24.448a2.271,2.271,0,0,0-2.271,2.271V30.517H0V2.271A2.271,2.271,0,0,1,2.271,0" transform="translate(110.152 44.9)" fill="#abd4ff"></path><path id="Fill_35" data-name="Fill 35" d="M.811,0H11.588a.81.81,0,0,1,0,1.621H.811A.81.81,0,1,1,.811,0" transform="translate(115.125 65.202)" fill="#e0efff"></path><path id="Fill_36" data-name="Fill 36" d="M.811,0H11.588a.81.81,0,0,1,0,1.621H.811A.81.81,0,1,1,.811,0" transform="translate(115.125 68.854)" fill="#e0efff"></path><path id="Fill_37" data-name="Fill 37" d="M0,6.2A6.2,6.2,0,1,0,6.2,0,6.2,6.2,0,0,0,0,6.2" transform="translate(115.125 50.206)" fill="#e0efff"></path><path id="Fill_38" data-name="Fill 38" d="M32.286,68.522H4.922A4.922,4.922,0,0,1,0,63.6V4.922A4.922,4.922,0,0,1,4.922,0H32.286a4.922,4.922,0,0,1,4.922,4.922V63.6a4.922,4.922,0,0,1-4.922,4.922" transform="translate(23.072 69.657)" fill="#247bde"></path><path id="Fill_39" data-name="Fill 39" d="M32.356,56.217H.661A.661.661,0,0,1,0,55.556V.661A.662.662,0,0,1,.661,0H32.356a.661.661,0,0,1,.661.661V55.556a.661.661,0,0,1-.661.661" transform="translate(25.168 76.866)" fill="#abd4ff"></path><path id="Fill_40" data-name="Fill 40" d="M13.57,1.7H.848a.848.848,0,1,1,0-1.7H13.57a.848.848,0,0,1,0,1.7" transform="translate(34.467 72.986)" fill="#1a003d"></path><path id="Fill_41" data-name="Fill 41" d="M1.6.8A.8.8,0,1,1,.8,0a.8.8,0,0,1,.8.8" transform="translate(51.784 73.034)" fill="#1a003d"></path><path id="Fill_42" data-name="Fill 42" d="M5.59,2.048,4.165,3.2a3.573,3.573,0,0,1-2.27.984C.6,4.185,0,1.339,0,1.339A11.725,11.725,0,0,1,4.12,0Z" transform="translate(63.913 106.07)" fill="#f9b"></path><path id="Fill_43" data-name="Fill 43" d="M.543.506S-.229.82.068,1.945,1.051,6.4,1.837,6.46A2.824,2.824,0,0,0,3.4,5.981L2.756,0Z" transform="translate(43.648 82.003)" fill="#2c3955"></path><path id="Fill_44" data-name="Fill 44" d="M2.435.219C5.977-.793,7.367,1.882,7.664,4.676S7.42,9.9,6.232,9.9A6.292,6.292,0,0,1,1.781,7.647C.414,6.042-1.725,1.407,2.435.219" transform="translate(45.263 80.338)" fill="#ffadc8"></path><path id="Fill_45" data-name="Fill 45" d="M4.992,3.15,3.982,6.656,0,4.9,1.367,0Z" transform="translate(44.964 85.43)" fill="#ffadc8"></path><path id="Fill_46" data-name="Fill 46" d="M8.175,3.268s1.488.35.958-.9S5.989-.542,3.374.171-.369,1.939.106,3.313c0,0,5.976.08,8.069-.045" transform="translate(44.086 79.197)" fill="#2c3955"></path><path id="Fill_47" data-name="Fill 47" d="M5.289.731c-1.011,0,.119,2.895-2.08,3.31A6.906,6.906,0,0,1,.3,4.219L0,0Z" transform="translate(44.964 81.805)" fill="#2c3955"></path><path id="Fill_48" data-name="Fill 48" d="M11.605.346a6.285,6.285,0,0,1,.041,2.217c-.18,1.385-1.427,16.279-1.427,16.279H.868a81.665,81.665,0,0,0-.554-8.728C-.171,7.066-.171,2.355.868,0Z" transform="translate(42.938 114.275)" fill="#1b5aa3"></path><path id="Fill_49" data-name="Fill 49" d="M4.865,0A17.174,17.174,0,0,1,8.643,1.571a47.35,47.35,0,0,1,3.948,8.335c1.316,4.018.97,14.2.97,14.2s-7.551,2.078-11.568,0c0,0-1.039-9.629-1.87-15.863S2.963.308,2.963.308Z" transform="translate(40.981 90.515)" fill="#4491ff"></path><path id="Fill_50" data-name="Fill 50" d="M0,.623l1.457,1.72L2.064,2.2.828,0Z" transform="translate(48.796 92.085)" fill="#247bde"></path><path id="Fill_51" data-name="Fill 51" d="M0,.148l2.45,8.04L3.5,18.1l1.432,1.267.255-3.392a78.745,78.745,0,0,0-1.707-10.2A24.787,24.787,0,0,0,.607,0Z" transform="translate(50.253 94.28)" fill="#247bde"></path><path id="Fill_52" data-name="Fill 52" d="M1.483,0S4.6.684,5.4.874s2.471.38,2.471.951a2.762,2.762,0,0,1-1.9,2.585c-1.559.456-3.879-1.1-3.879-1.1L0,2.852Z" transform="translate(59.31 106.717)" fill="#ffadc8"></path><path id="Fill_53" data-name="Fill 53" d="M0,.648A5.887,5.887,0,0,1,2.121,0a7.316,7.316,0,0,1,2.206.77L1.9,2.095Z" transform="translate(60.793 106.069)" fill="#ffadc8"></path><path id="Fill_54" data-name="Fill 54" d="M2.683.05c2.8-.611,3.741,4.5,5.265,6.719s2.217,3.464,3.81,4.018,7.966,3.048,7.966,3.048-.277,2.909-1.108,3.879c0,0-9.084-2.355-11.157-3.533S.328,5.347.051,4.17A3.794,3.794,0,0,1,2.683.05" transform="translate(41.676 92.543)" fill="#6ba8ff"></path><path id="Fill_55" data-name="Fill 55" d="M5.337.251C1.794-.761.347,1.428.05,4.221S.827,10.51,2.015,10.51A6.293,6.293,0,0,0,6.466,8.257C7.833,6.653,9.5,1.44,5.337.251" transform="translate(80.406 78.945)" fill="#ffadc8"></path><path id="Fill_56" data-name="Fill 56" d="M4.576,4.309a6.53,6.53,0,0,1-2.935,0C.193,3.925-.053,2.079.008,1.156s.8-1.23,1.661-.923S8.128-.936,9.3,1.094c0,0,2.646.274,1.662,4.628S9.5,9.609,8.982,9.523,4.576,4.309,4.576,4.309" transform="translate(79.087 77.444)" fill="#247bde"></path><path id="Fill_57" data-name="Fill 57" d="M10.523.323c1.677.444,3.089,1.883,2.336,7.458s.418,15.066-1.074,15.439-8.851,1.027-10.728,0S.394,11.174.3,7.906,3.749-1.47,10.523.323" transform="translate(79.349 89.513)" fill="#1e66b8"></path><path id="Fill_58" data-name="Fill 58" d="M4.277.286V15.6L1.638,19.258,0,14.967,2.356,0Z" transform="translate(81.605 93.997)" fill="#4491ff"></path><path id="Fill_59" data-name="Fill 59" d="M0,2.413,17.686,0l2.5,11.778L2.013,14.69Z" transform="translate(78.015 109.305)" fill="#6ba8ff"></path><path id="Fill_60" data-name="Fill 60" d="M15.742,0C13.368.978,11.387,6.424,9.1,8.281S0,14.841,0,14.841a7.032,7.032,0,0,0,2.414,3.589s6.911-4.465,8.231-5.508,3.914-7.677,3.914-7.677Z" transform="translate(67.501 90.843)" fill="#1e66b8"></path><path id="Fill_61" data-name="Fill 61" d="M3.111,0A4.554,4.554,0,0,0,1.452,1.209C1.114,1.822.185,3.467.016,3.79s1.025.525,1.547-.219A9.593,9.593,0,0,1,3.111,2.041,6.877,6.877,0,0,0,4.2,0Z" transform="translate(84.676 116.795)" fill="#ffadc8"></path><path id="Fill_62" data-name="Fill 62" d="M4.94.478s-.547,3.971-1.1,4.5S1.927,6.6,1.449,6.558,0,6.355,0,5.625A16.078,16.078,0,0,1,.971,2.5L2.461,0Z" transform="translate(85.326 116.795)" fill="#ffadc8"></path><path id="Fill_63" data-name="Fill 63" d="M5.814.184s-3.52-.415-3.921,0S-.377,1.4.068,1.712a3.613,3.613,0,0,0,2.819-.037S6.218,2.841,5.814.184" transform="translate(61.822 105.917)" fill="#f9b"></path><path id="Fill_64" data-name="Fill 64" d="M.16.761,0,2.694l1.922.286L2.665.451,1.01,0Z" transform="translate(83.96 91.303)" fill="#4491ff"></path><path id="Fill_65" data-name="Fill 65" d="M.692,0A7.266,7.266,0,0,1,3.516,1.354,14.255,14.255,0,0,1,5.68,3.618L4.229,4.71S1.178,2.87,0,2.355Z" transform="translate(43.944 88.467)" fill="#6ba8ff"></path><path id="Fill_66" data-name="Fill 66" d="M2.326,1.162S1.459-.23.544.033-.348,3.9,2.326,3.777Z" transform="translate(45.846 84.684)" fill="#ffadc8"></path><path id="Fill_67" data-name="Fill 67" d="M2.968.011C5.289-.283,6.017,5.4,6.042,8.75s-2.6,17.838-2.6,17.838A7.61,7.61,0,0,1,0,26s1.912-9.981,1.772-12.2S-.887.5,2.968.011" transform="translate(88.417 91.394)" fill="#2378d9"></path><path id="Fill_68" data-name="Fill 68" d="M1.728,4.1,0,5.646.864,2.253,3.629,0Z" transform="translate(83.243 87.203)" fill="#2378d9"></path><path id="Fill_69" data-name="Fill 69" d="M0,3.15,1.01,6.656,4.992,4.9,3.625,0Z" transform="translate(83.96 84.648)" fill="#ffadc8"></path><path id="Fill_70" data-name="Fill 70" d="M0,3.622,3.46,0,4.9,2.155,2.451,5.922Z" transform="translate(84.97 87.681)" fill="#2378d9"></path><path id="Fill_71" data-name="Fill 71" d="M0,.73c1.01,0-.119,2.895,2.08,3.311a6.907,6.907,0,0,0,2.91.178L5.289,0Z" transform="translate(83.663 81.023)" fill="#247bde"></path><path id="Fill_72" data-name="Fill 72" d="M0,1.162S.867-.23,1.783.033,2.674,3.9,0,3.777Z" transform="translate(85.743 83.901)" fill="#ffadc8"></path><path id="Fill_73" data-name="Fill 73" d="M8.255,4.094s1.416.212,1.592-.708S8.22,1.3,7.229.59,1.212-.79,1.389,2.395A2.293,2.293,0,0,0,.009,4.518c-.071,1.663.283,4.211.779,4.6S8.255,4.094,8.255,4.094" transform="translate(8.951 96.044)" fill="#4491ff"></path><path id="Fill_74" data-name="Fill 74" d="M0,1.959s1.174,2.514,1.434,3.4,2.434.366,2.434.366l1.755-1.7L3.446,0Z" transform="translate(32.937 140.957)" fill="#ffadc8"></path><path id="Fill_75" data-name="Fill 75" d="M0,.581S.186,3.349.11,4.265,2.247,5.487,2.247,5.487L4.5,4.533,3.921,0Z" transform="translate(27.305 151.092)" fill="#ffadc8"></path><path id="Fill_76" data-name="Fill 76" d="M.208.84c.116-.811,1.412.725,2.519.725S5.437,0,5.437,0A25.3,25.3,0,0,0,8.8,1.565c1.3.42,3.321.84,3.321,1.832v.429a.564.564,0,0,1-.563.563H.563A.563.563,0,0,1,0,3.8C.033,3,.1,1.581.208.84" transform="translate(26.557 153.984)" fill="#37486b"></path><path id="Fill_77" data-name="Fill 77" d="M0,1.2S2.983.754,6.885.527s7.537-1.232,8.6.335S22.58,14.753,22.58,14.753l-4.434,2.483-5.32-8.618L0,3.4Z" transform="translate(14.524 126.404)" fill="#174d8c"></path><path id="Fill_78" data-name="Fill 78" d="M0,4.959S.654,9.974,6.832,9.538c4.568-.322,12.435-.02,12.435-.02l1.675,15.916S24.75,26.5,26.273,24.6c0,0-.99-15.258-1.219-17s-.609-3.565-3.122-4.174-10.509-1.675-11.651-1.9A6.722,6.722,0,0,1,7.776,0Z" transform="translate(5.932 126.931)" fill="#1b5aa3"></path><path id="Fill_79" data-name="Fill 79" d="M3.024.008C6.63.212,6.735,2.1,6.431,3.884S5.363,9.008,4.092,9.275.736,7.805.431,6.736a13.677,13.677,0,0,1-.305-4.99C.431.587,1.448-.081,3.024.008" transform="translate(11.531 98.33)" fill="#ffadc8"></path><path id="Fill_80" data-name="Fill 80" d="M5.381,2.884A14.934,14.934,0,0,0,4.317,6.476L0,4.105A19.986,19.986,0,0,0,1.911,0L3.327.6Z" transform="translate(8.5 103.889)" fill="#ffadc8"></path><path id="Fill_81" data-name="Fill 81" d="M6.749,1.329a1.338,1.338,0,0,0-1.856.925c0,.531-.257,1.639-1.071,1.887a12.41,12.41,0,0,1-1.692.367L0,3.681.9,1,3.54,0,6.37.248Z" transform="translate(10.34 97.695)" fill="#4491ff"></path><path id="Fill_82" data-name="Fill 82" d="M2.488,1.1S1.914-.787.641.381A2.372,2.372,0,0,0,.888,3.814,2.042,2.042,0,0,0,2.3,3.849Z" transform="translate(9.983 101.101)" fill="#ffadc8"></path><path id="Fill_83" data-name="Fill 83" d="M6.964,0c-1.54-.061-3.948.416-5.872,6.41s-.981,18.2.35,19.284,8.293-1.087,9.721-3.691c.567-1.035-.842-3.908-.239-8.986S10.515.145,6.964,0" transform="translate(3.714 106.773)" fill="#5ea1ff"></path><path id="Fill_84" data-name="Fill 84" d="M11.274,1.753H.877A.877.877,0,0,1,.877,0h10.4a.877.877,0,0,1,0,1.753" transform="translate(17.37 126.001)" fill="#4491ff"></path><path id="Fill_85" data-name="Fill 85" d="M.053,10.347,3.609.577a.877.877,0,0,1,1.647.6L1.7,10.947a.877.877,0,1,1-1.647-.6" transform="translate(27.737 116.402)" fill="#4491ff"></path><path id="Fill_86" data-name="Fill 86" d="M0,3.128a10.036,10.036,0,0,0,2.547.337c1.4,0,1.965-.673,2.807-.954s1.226.661,2.084.661.208-.806-.494-1.56S5.67,0,4.917,0A37.98,37.98,0,0,0,.185,1.378Z" transform="translate(17.159 123.017)" fill="#ffadc8"></path><path id="Fill_87" data-name="Fill 87" d="M2.445.024c2.341-.318,3.5,2.6,3.351,5.123s-.6,6.119-.6,6.119a23.28,23.28,0,0,0,7.467,1.516s1.305,1.684-.526,3.817c0,0-9.691.393-10.7-.786S-.249,13.722.088,8.34.481.29,2.445.024" transform="translate(5.023 111.343)" fill="#78b0ff"></path><path id="Fill_88" data-name="Fill 88" d="M0,1.448C0,.629,1.388,2,2.4,1.871S4.693,0,4.693,0A22.677,22.677,0,0,0,7.974,1.157c1.245.264,3.154.442,3.28,1.427l.044.347a.643.643,0,0,1-.556.719L.9,4.911a.641.641,0,0,1-.722-.578C.107,3.523,0,2.172,0,1.448" transform="translate(33.868 144.766)" fill="#37486b"></path><path id="Fill_89" data-name="Fill 89" d="M1.718,3.436H22.346a1.718,1.718,0,0,0,0-3.436H1.718a1.718,1.718,0,1,0,0,3.436" transform="translate(0 136.399)" fill="#5caaff"></path><path id="Fill_90" data-name="Fill 90" d="M0,0H20.23V17.737a.838.838,0,0,1-.839.838H.838A.838.838,0,0,1,0,17.737Z" transform="translate(1.917 139.835)" fill="#abd4ff"></path><path id="Fill_91" data-name="Fill 91" d="M17.252.1S12.017-.957,5.583,3.81s-6.965,7.152-3.336,6.456,7.83-.28,9.3.794Z" transform="translate(94.894 13.031)" fill="#e02020"></path><path id="Fill_92" data-name="Fill 92" d="M8.718,0s2.592,4.669,0,12.245-4.707,8.8-5.143,5.134S1.467,9.831,0,8.758Z" transform="translate(112.764 19.961)" fill="#e02020"></path><path id="Fill_93" data-name="Fill 93" d="M9.446,2.4A8.355,8.355,0,0,1,7.636,7.668c-2.049,2.8-4.456,3.207-4.667,3.052s-.217-.676-.217-.676S.8,11.655.272,11.269s.72-3.547.665-3.781-.38.078-.811-.173S.4,5.091,1.772,3.216l.01-.013A7.935,7.935,0,0,1,6.17,0Z" transform="translate(97.35 31.28)" fill="#ffd676"></path><path id="Fill_94" data-name="Fill 94" d="M5.955,1.407A12.748,12.748,0,0,1,4.041,5.8C2.624,7.734,1.831,7.87,1.627,7.721s-.053-.844-.053-.844-.932.816-1.311.539.189-1.7.34-2.054a.546.546,0,0,1-.545-.019C-.19,5.162.385,3.734,1.287,2.5A12.343,12.343,0,0,1,4.481,0Z" transform="translate(99.884 31.898)" fill="#ffad00"></path><path id="Fill_95" data-name="Fill 95" d="M3.521,2.033,6.3,4.065a5.137,5.137,0,0,1-1.514,1.26c-.648.228-2.081-.523-2.869-1.1S-.021,2.511,0,1.824A5.135,5.135,0,0,1,.743,0Z" transform="translate(102.928 28.681)" fill="#e02020"></path><path id="Fill_96" data-name="Fill 96" d="M12.843,6.4C17.857,1.842,24.512-.639,25.581.143S26.269,8,23.44,14.156,14.649,28.214,10.608,30.893c-3.469,2.3-4.57,2.484-5.765,1.61L2.93,31.1.987,29.682C-.208,28.808-.365,27.7.777,23.7c1.33-4.662,7.052-12.737,12.066-17.3" transform="translate(103.234 0)" fill="#8fbeff"></path><path id="Fill_97" data-name="Fill 97" d="M3.225,5.711A12.392,12.392,0,0,1,0,2.509C3.488.53,6.618-.373,7.322.143S8.1,3.9,7.261,7.817A12.365,12.365,0,0,1,3.225,5.711" transform="translate(121.493 0)" fill="#e02020"></path><path id="Fill_98" data-name="Fill 98" d="M.842,1.787a4.363,4.363,0,1,0,6.1-.945,4.363,4.363,0,0,0-6.1.945" transform="translate(116.598 6.514)" fill="#e02020"></path><path id="Fill_99" data-name="Fill 99" d="M.579,1.228a3,3,0,1,0,4.19-.65,3,3,0,0,0-4.19.65" transform="translate(117.963 7.878)" fill="#abd4ff"></path><path id="Fill_100" data-name="Fill 100" d="M2.949,1.45A1.475,1.475,0,1,1,1.45,0a1.475,1.475,0,0,1,1.5,1.45" transform="translate(139.512 12.401)" fill="#e0efff"></path><path id="Fill_101" data-name="Fill 101" d="M2.949,1.45A1.475,1.475,0,1,1,1.45,0a1.475,1.475,0,0,1,1.5,1.45" transform="translate(38.252 41.135)" fill="#e0efff"></path><path id="Fill_102" data-name="Fill 102" d="M3.191,1.3l-.751.012L2.427.556A.566.566,0,0,0,1.3.575l.013.751-.752.013A.566.566,0,0,0,.575,2.471l.752-.013.012.752a.566.566,0,0,0,1.132-.019L2.458,2.44l.752-.012A.566.566,0,0,0,3.191,1.3" transform="translate(135.137 35.248)" fill="#e2e6ff"></path><path id="Fill_103" data-name="Fill 103" d="M3.191,1.3l-.751.012L2.427.556A.566.566,0,1,0,1.3.575l.012.752-.752.012A.566.566,0,0,0,.575,2.471l.751-.013.012.752a.566.566,0,0,0,1.132-.019L2.459,2.44l.751-.012A.566.566,0,0,0,3.191,1.3" transform="translate(71.964 11.148)" fill="#e0efff"></path><path id="Fill_104" data-name="Fill 104" d="M17.506,31.017H13.5a.723.723,0,0,1-.54-.259.882.882,0,0,1-.223-.576v-1.82A13.218,13.218,0,0,1,8.372,26.6L7.055,27.913a.766.766,0,0,1-1.082,0L3.138,25.077a.766.766,0,0,1,0-1.082l1.287-1.238a13.786,13.786,0,0,1-1.834-4.281H.729A.831.831,0,0,1,0,17.611V13.6a.744.744,0,0,1,.729-.774h1.82A12.271,12.271,0,0,1,4.315,8.473L3,7.159A.763.763,0,0,1,3,6.077L5.834,3.242a.766.766,0,0,1,1.082,0L8.206,4.53A13.025,13.025,0,0,1,12.541,2.7V.834A.82.82,0,0,1,13.3,0h4.01a.842.842,0,0,1,.784.834V2.655a13,13,0,0,1,4.35,1.765L23.755,3.1a.762.762,0,0,1,1.08,0l2.834,2.835a.767.767,0,0,1,0,1.082L26.381,8.355a11.83,11.83,0,0,1,1.834,4.377h1.862a.675.675,0,0,1,.748.673v4.01a.678.678,0,0,1-.748.678h-1.82a13.334,13.334,0,0,1-1.766,4.4l1.317,1.338a.779.779,0,0,1,0,1.093l-2.835,2.841a.765.765,0,0,1-.544.226.756.756,0,0,1-.538-.223l-1.281-1.286a12.988,12.988,0,0,1-4.324,1.835v1.862A.84.84,0,0,1,17.506,31.017ZM15.413,8.88a6.606,6.606,0,1,0,2.58.521A6.587,6.587,0,0,0,15.413,8.88Z" transform="translate(138.406 128.984)" fill="#78b0ff"></path><path id="Fill_105" data-name="Fill 105" d="M12.494,22.136H9.632a.587.587,0,0,1-.545-.6v-1.3a9.427,9.427,0,0,1-3.112-1.26l-.94.939a.546.546,0,0,1-.773,0L2.239,17.9a.546.546,0,0,1,0-.773l.918-.883a9.844,9.844,0,0,1-1.309-3.056H.52A.593.593,0,0,1,0,12.569V9.707a.531.531,0,0,1,.52-.552h1.3a8.761,8.761,0,0,1,1.26-3.108L2.14,5.109a.544.544,0,0,1,0-.771L4.163,2.314a.546.546,0,0,1,.772,0l.921.918A9.3,9.3,0,0,1,8.95,1.924V.6A.585.585,0,0,1,9.491,0h2.862a.6.6,0,0,1,.559.6v1.3a9.293,9.293,0,0,1,3.1,1.26l.936-.94a.545.545,0,0,1,.771,0l2.023,2.024a.546.546,0,0,1,0,.772l-.919.952a8.447,8.447,0,0,1,1.309,3.124h1.329a.482.482,0,0,1,.534.48v2.861a.484.484,0,0,1-.534.484h-1.3a9.517,9.517,0,0,1-1.26,3.142l.939.955a.555.555,0,0,1,0,.78l-2.023,2.027a.546.546,0,0,1-.388.161.54.54,0,0,1-.384-.159l-.914-.918a9.28,9.28,0,0,1-3.086,1.31V21.54A.6.6,0,0,1,12.494,22.136ZM11,6.338a4.73,4.73,0,1,0,3.345,1.385A4.7,4.7,0,0,0,11,6.338Z" transform="translate(155.77 109.158)" fill="#5caaff"></path></g></svg> 